# xmcd
#
# Track frame offsets: 
#        150
#        18473
#        33047
#        57209
#        76687
#        98128
#        118780
#        134502
#        150501
#        163603
#
# Disc length: 2477 seconds
#
# Revision: 0
# Processed by: cddbd v1.5.2PL0 Copyright (c) Steve Scherf et al.
# Submitted via: ExactAudioCopy v0.99pb4
#
DISCID=6f09ab0a
DTITLE=Hunter Hayes - Songs About Nothing
DYEAR=2008
DGENRE=Country
TTITLE0=Ain't Love Sweet
TTITLE1=Love Song
TTITLE2=What You Gonna Do
TTITLE3=Stand By Me
TTITLE4=That's What I Get
TTITLE5=Empty Arm
TTITLE6=What I Wouldn't Do
TTITLE7=Not
TTITLE8=Fallin'
TTITLE9=America The Beautiful
EXTD=
EXTT0=
EXTT1=
EXTT2=
EXTT3=
EXTT4=
EXTT5=
EXTT6=
EXTT7=
EXTT8=
EXTT9=
PLAYORDER=
